<svg width="209" height="53" fill="none" xmlns="http://www.w3.org/2000/svg">
    <path d="M10.521 17.358c3.264-4.366 7.732-8.375 13.163-11.509 15.742-9.09 33.61-7.398 39.91 3.777 3.513 6.233 2.685 14.103-1.466 21.42-.38.693-1.507 2.353-2.023 3.096-3.292 4.552-7.978 8.925-13.608 12.176-15.742 9.088-33.61 7.398-39.91-3.777-3.622-6.426-2.63-14.587 1.86-22.092L0 20.445l1.07-3.089 9.451.002z" fill="#8E3232"/>
    <path fill-rule="evenodd" clip-rule="evenodd" d="M47.158 27.747l.575-3.424-10.507.002-.385 2.85 6.344.017c.04.696-.427 2.549-1.226 3.254-.028.025-.07.061-.1.085-.292.234-.692.484-1.189.489l-5.783.054c-5.85-.023-5.193.122-3.084-7.107.57-1.95 1.85-3.511 3.986-3.518l15.01-.001-3.27 13.687 12.576.007c.453-.46 1.797-2.561 2.023-3.096l-9.71.005L55.89 17.34H39.15c-8.204.007-10.1.486-12.016 9.006-.644 2.864-2.046 6.694 2.224 7.577 1.36.383 8.907.55 12.594.035.966-.135 1.361-.255 1.708-.466 2.18-.996 3.157-4.025 3.497-5.745zM18.113 20.482c5.357.147 4.75-.011 3.084 7.106-.57 1.95-1.85 3.512-3.986 3.519H9.138l1.621-6.781-3.81.002-2.565 9.874 3.71-.007 5.765-.006c8.204-.007 10.09-.459 12.006-8.98.644-2.863 2.046-6.695-2.224-7.577-1.114-.313-6.368-.219-10.268-.25l-2.851-.023-2.076 3.09 9.667.033z" fill="#fff"/>
    <path fill-rule="evenodd" clip-rule="evenodd" d="M70.593 24.096h2.177c.468 0 .819-.05 1.126-.146.293-.095.546-.276.745-.52.21-.259.38-.606.512-1.065.13-.455.252-1.067.366-1.837.148-1.016.204-1.767.16-2.266-.044-.497-.19-.834-.438-1.017-.249-.18-.66-.268-1.17-.268h-2.484a514.37 514.37 0 01-.498 3.559c-.168 1.185-.321 2.373-.496 3.56zm-2.032 1.705c.262-1.76.518-3.52.774-5.279.256-1.76.498-3.52.746-5.28h4.37c.702 0 1.262.085 1.725.275.428.176.75.478.95.862.208.398.329.894.365 1.51.037.615-.005 1.385-.132 2.3-.15 1.088-.336 1.984-.555 2.686-.219.704-.515 1.266-.848 1.702a2.768 2.768 0 01-1.256.935c-.525.195-1.141.289-1.872.289h-4.267zM80.475 15.202c-.224 1.821-.446 3.64-.683 5.462-.235 1.818-.46 3.64-.71 5.46h-1.671l.71-5.46c.237-1.821.46-3.64.696-5.462h1.658zM86.227 22.478c-.138-.944-.27-1.89-.403-2.834-.132-.944-.264-1.893-.39-2.838-.376.945-.745 1.891-1.114 2.838-.369.942-.74 1.89-1.1 2.834h3.007zm.21 1.561h-3.803c-.278.697-.543 1.391-.822 2.085h-1.74c.722-1.82 1.442-3.643 2.158-5.46.719-1.822 1.421-3.64 2.117-5.462h2.48c.25 1.821.557 3.642.809 5.462.25 1.82.528 3.64.793 5.46h-1.714c-.097-.694-.194-1.388-.278-2.085zM92.455 15.202c-.167 1.518-.363 3.034-.542 4.55-.181 1.518-.364 3.034-.558 4.551h4.053c-.07.607-.153 1.214-.222 1.822h-5.768c.237-1.82.453-3.642.683-5.46.23-1.821.445-3.642.669-5.463h1.685zM103.584 20.337h3.874c-.057.398-.093.797-.14 1.194a14.954 14.954 0 01-.43 2.248c-.161.582-.401 1.06-.712 1.42-.315.365-.739.626-1.254.794-.515.165-1.155.248-1.935.248-.851 0-1.52-.088-2.007-.281a1.87 1.87 0 01-1.016-.909c-.212-.423-.335-.97-.35-1.65-.013-.682.04-1.592.168-2.73.122-1.068.287-1.945.474-2.632.188-.69.433-1.26.754-1.683a2.864 2.864 0 011.279-.96c.531-.21 1.186-.31 1.994-.31.681 0 1.267.055 1.699.162.444.111.803.293 1.059.543.26.257.417.603.515 1.04.097.442.097.998.056 1.682h-1.603c0-.364-.013-.648-.042-.847a.796.796 0 00-.25-.473c-.126-.116-.334-.2-.571-.242-.265-.05-.628-.071-1.087-.071-.487 0-.864.052-1.143.152-.291.102-.492.289-.668.547a3.01 3.01 0 00-.446 1.105c-.096.468-.21 1.132-.306 1.987a25.436 25.436 0 00-.166 2.037c-.016.474.06.839.18 1.098a.925.925 0 00.557.52c.252.088.641.137 1.114.137.599 0 1.044-.056 1.352-.163.306-.108.534-.316.696-.637.158-.312.275-.805.349-1.46.011-.102.028-.205.028-.306h-2.201c.055-.522.11-1.04.179-1.56zM110.132 20.714h2.368c.517 0 .878-.152 1.13-.448.249-.3.399-.767.474-1.405.052-.456.055-.82.012-1.086a.851.851 0 00-.347-.59c-.181-.125-.446-.19-.796-.19h-2.422l-.209 1.86-.21 1.86zm2.161 1.75h-2.355c-.071.61-.16 1.222-.224 1.83-.061.61-.138 1.22-.208 1.83h-1.645l.628-5.46c.208-1.822.418-3.64.613-5.463h4.276c.655 0 1.158.11 1.561.334.391.218.654.58.807 1.08.154.498.173 1.157.085 1.97a10.662 10.662 0 01-.25 1.48 2.119 2.119 0 01-.572.987 1.32 1.32 0 01-.391.28c-.137.058-.376.13-.682.227 0 .02-.015.041-.015.06.975.071 1.412.776 1.254 2.114-.092.797-.18 1.595-.279 2.39h-1.712c.084-.743.191-1.486.263-2.232.053-.53-.028-.902-.222-1.112-.195-.21-.501-.314-.932-.314zM118.519 20.67a21.735 21.735 0 00-.153 2.092c-.008.482.055.85.167 1.096.11.25.292.415.528.496.251.082.614.124 1.073.124.46 0 .835-.045 1.1-.135.266-.09.488-.259.656-.513.167-.253.292-.617.403-1.096.113-.477.209-1.166.306-2.064.099-.908.14-1.61.14-2.104 0-.496-.063-.862-.181-1.105a.866.866 0 00-.543-.473c-.224-.068-.584-.109-1.057-.109-.489 0-.852.034-1.117.107a1.036 1.036 0 00-.612.472c-.153.243-.3.609-.404 1.089-.106.484-.201 1.188-.306 2.123zm-1.685-.23c.122-1.081.283-1.96.472-2.637.187-.67.436-1.207.766-1.61a2.625 2.625 0 011.199-.851c.5-.175 1.115-.257 1.894-.257.753 0 1.366.086 1.812.257a2.03 2.03 0 011.044.851c.237.396.355.935.404 1.615.048.678.002 1.557-.112 2.632a28.5 28.5 0 01-.222 1.678c-.084.5-.173.934-.265 1.304-.186.751-.454 1.334-.78 1.744a2.597 2.597 0 01-1.226.862c-.474.16-1.1.242-1.881.242-.822 0-1.463-.08-1.922-.24-.46-.16-.799-.441-1.017-.855-.214-.408-.329-.988-.349-1.727-.008-.367-.02-.803.029-1.304.049-.5.081-1.07.154-1.704zM131.863 15.217h1.687c-.126 1.213-.253 2.425-.378 3.64-.125 1.212-.254 2.423-.375 3.635-.073.735-.173 1.331-.32 1.795-.145.46-.359.842-.641 1.13-.289.296-.697.502-1.198.637-.488.133-1.115.204-1.909.203-1.03-.003-1.813-.12-2.312-.365-.476-.237-.787-.625-.892-1.147-.104-.523-.12-1.276-.014-2.267.13-1.208.265-2.42.391-3.63s.264-2.42.375-3.63h1.672c-.126 1.228-.244 2.46-.376 3.687a964.188 964.188 0 00-.39 3.69c-.054.527-.063.92 0 1.175.062.256.236.433.502.536.264.103.696.156 1.267.156.598 0 1.032-.053 1.324-.156a.93.93 0 00.571-.53c.114-.256.21-.643.264-1.18l.375-3.691c.127-1.228.252-2.46.377-3.688zM136.126 20.786h2.077c.389 0 .708-.054.932-.152.234-.106.404-.282.53-.539.125-.258.218-.63.264-1.117.051-.53.036-.94-.027-1.227a.864.864 0 00-.431-.608c-.212-.114-.503-.178-.879-.178h-2.075c-.071.639-.126 1.277-.196 1.913-.069.635-.124 1.272-.195 1.908zm-2.229 5.338c.196-1.82.384-3.642.571-5.46.189-1.82.363-3.641.559-5.463h3.705c.766 0 1.366.093 1.824.286.447.191.767.548.947 1.068.182.523.234 1.266.14 2.236-.074.748-.187 1.365-.349 1.849-.158.478-.376.862-.641 1.139-.264.277-.597.48-.988.588-.418.117-.906.17-1.52.17h-2.2c-.069.6-.119 1.195-.181 1.794-.061.597-.126 1.196-.195 1.793h-1.672zM148.065 15.202c-.14 1.518-.271 3.034-.419 4.55a778.025 778.025 0 01-.445 4.551h4.054c-.055.607-.125 1.214-.18 1.822h-5.768c.181-1.82.369-3.642.543-5.46.174-1.821.347-3.642.529-5.463h1.686zM154.25 20.67a21.511 21.511 0 00-.111 2.092c0 .482.069.85.181 1.096a.87.87 0 00.542.496c.252.08.601.124 1.074.124.459 0 .836-.045 1.099-.135.265-.09.474-.26.642-.513.167-.253.286-.619.377-1.096.09-.48.194-1.166.277-2.064.085-.908.105-1.61.097-2.104-.005-.496-.064-.868-.18-1.105a.872.872 0 00-.543-.473c-.237-.07-.599-.109-1.073-.109-.488 0-.864.034-1.114.107-.237.068-.443.232-.6.472-.162.245-.3.609-.39 1.089a26.38 26.38 0 00-.278 2.123zm-1.686-.23c.105-1.081.251-1.961.418-2.637.167-.673.422-1.207.739-1.61a2.549 2.549 0 011.184-.851c.513-.178 1.142-.257 1.894-.257.766 0 1.364.09 1.811.257.473.176.817.457 1.058.851.247.4.384.933.446 1.615.063.677.042 1.558-.055 2.632-.055.621-.139 1.18-.21 1.678-.069.497-.146.934-.235 1.304-.187.751-.442 1.334-.752 1.744a2.496 2.496 0 01-1.213.862c-.474.16-1.101.242-1.881.242-.821 0-1.46-.081-1.92-.24-.475-.162-.8-.441-1.033-.855-.228-.408-.353-.988-.39-1.727-.018-.367-.02-.803.014-1.304.036-.502.063-1.072.125-1.704zM164.934 20.337h3.874c-.043.398-.075.796-.112 1.194-.088.916-.197 1.665-.35 2.248-.153.584-.381 1.063-.681 1.42-.312.37-.713.626-1.226.794-.517.165-1.157.248-1.936.248-.837 0-1.519-.095-1.994-.281-.485-.189-.848-.49-1.071-.909-.225-.418-.342-.97-.376-1.65-.035-.683-.012-1.592.097-2.73a21.89 21.89 0 01.39-2.632c.154-.686.404-1.25.71-1.683a2.7 2.7 0 011.241-.96c.515-.207 1.183-.31 1.978-.31.696 0 1.268.051 1.727.162.432.106.794.29 1.057.543.265.254.446.596.559 1.04.11.435.126.998.083 1.682h-1.587c-.016-.364-.03-.648-.07-.847a.842.842 0 00-.279-.473c-.12-.106-.307-.194-.585-.242a6.47 6.47 0 00-1.058-.071c-.489 0-.866.046-1.157.152-.266.094-.483.287-.654.547-.177.268-.308.635-.39 1.105a19.687 19.687 0 00-.266 1.987c-.07.882-.104 1.563-.097 2.037.007.474.075.839.195 1.098a.908.908 0 00.571.52c.266.088.641.137 1.114.137.601 0 1.059-.058 1.351-.163.307-.11.519-.324.669-.637.156-.322.287-.804.335-1.46.007-.102.015-.205.028-.306h-2.229c.055-.522.084-1.04.139-1.56zM172.038 15.202c-.152 1.821-.306 3.643-.46 5.462-.152 1.82-.32 3.64-.474 5.46h-1.672c.156-1.82.321-3.64.475-5.46.154-1.82.305-3.64.461-5.462h1.67zM172.61 22.625h1.602a7.826 7.826 0 00-.014 1.042c.021.246.104.425.237.556.119.12.293.207.531.248.221.041.555.063.987.063.529 0 .934-.055 1.227-.165.278-.106.493-.276.612-.511.116-.227.204-.532.237-.913.036-.42-.014-.731-.126-.932-.111-.203-.308-.336-.612-.419-.266-.072-.71-.143-1.325-.18-.708-.044-1.309-.15-1.754-.339-.446-.185-.771-.505-.989-.97-.215-.455-.286-1.103-.208-1.925.061-.66.197-1.22.444-1.668.255-.46.642-.807 1.171-1.056.53-.247 1.211-.372 2.076-.372 1.113 0 1.935.197 2.467.595.528.395.767 1.157.68 2.275-.01.142-.027.282-.04.424h-1.617c.042-.465.014-.812-.055-1.04-.071-.233-.251-.391-.489-.476-.236-.087-.584-.13-1.058-.13-.697 0-1.166.125-1.434.369-.275.247-.431.61-.474 1.09-.039.413-.016.708.042.897.054.182.223.323.514.42.28.093.738.163 1.408.186.725.026 1.322.125 1.769.31.458.19.805.502 1.017.95.206.438.288 1.042.223 1.803-.075.867-.223 1.55-.46 2.044a2.215 2.215 0 01-1.143 1.099c-.54.24-1.28.357-2.242.357-.809 0-1.449-.08-1.922-.23a1.734 1.734 0 01-1.072-.926c-.23-.46-.336-1.142-.252-2.04.015-.147.042-.29.042-.436zM182.583 26.124c.14-1.515.251-3.033.378-4.548.124-1.515.235-3.035.361-4.551h-2.535c.041-.607.096-1.214.139-1.823h6.813c-.043.61-.1 1.216-.141 1.823h-2.591c-.125 1.516-.244 3.036-.362 4.55-.118 1.516-.236 3.034-.362 4.55h-1.7zM190.483 15.202c-.14 1.821-.278 3.643-.419 5.462-.138 1.82-.278 3.64-.42 5.46h-1.669c.139-1.82.292-3.64.432-5.46.138-1.82.278-3.64.418-5.462h1.658zM196.931 22.216h1.644l-.042.639c-.056.847-.209 1.512-.487 2.004-.279.49-.669.842-1.212 1.06-.543.215-1.254.321-2.159.321-.739 0-1.352-.086-1.811-.262a1.989 1.989 0 01-1.058-.897c-.233-.415-.392-1-.447-1.733-.028-.367-.047-.79-.042-1.27a25.727 25.727 0 01.293-3.371c.075-.517.213-.97.349-1.358.267-.77.684-1.338 1.239-1.71.546-.366 1.295-.555 2.243-.555.933 0 1.657.14 2.13.408.488.278.822.679.99 1.217.167.537.238 1.253.223 2.153h-1.629c.027-.576-.028-1.002-.126-1.273a.912.912 0 00-.543-.553c-.251-.093-.641-.143-1.185-.143-.542 0-.961.09-1.239.267-.28.178-.486.523-.627 1.046-.138.514-.244 1.339-.334 2.464-.064.797-.063 1.44-.043 1.928.022.488.071.87.195 1.135.128.274.32.46.544.559.248.11.571.154.975.154.529 0 .945-.047 1.226-.131.304-.095.502-.244.64-.466.141-.222.225-.536.252-.946l.041-.687zM199.244 22.625h1.601a6.57 6.57 0 000 1.042c.027.247.105.425.237.556a.944.944 0 00.529.248c.237.043.572.063 1.004.063.516 0 .92-.055 1.212-.165a1.12 1.12 0 00.613-.511c.126-.231.197-.534.222-.913.03-.42-.018-.728-.139-.932-.116-.2-.309-.338-.599-.419-.265-.073-.723-.143-1.337-.18-.71-.044-1.31-.15-1.755-.339-.447-.185-.78-.508-1.002-.97-.225-.458-.3-1.103-.238-1.925.049-.66.19-1.217.432-1.668.246-.457.631-.8 1.171-1.056.503-.239 1.21-.372 2.062-.372 1.099 0 1.933.201 2.464.595.541.399.759 1.156.697 2.275a7.538 7.538 0 01-.029.424h-1.614c.042-.465.006-.81-.071-1.04a.757.757 0 00-.472-.476c-.249-.091-.601-.13-1.074-.13-.711 0-1.166.125-1.434.369-.276.247-.423.608-.46 1.09-.031.413.006.71.056.897.047.183.223.323.515.42.278.093.765.164 1.407.186.737.027 1.323.125 1.783.31.472.19.807.506 1.017.95.209.442.302 1.042.25 1.803-.058.867-.208 1.55-.432 2.044-.222.494-.613.86-1.142 1.099-.515.235-1.254.357-2.229.357-.794 0-1.448-.08-1.922-.23a1.772 1.772 0 01-1.086-.926c-.234-.456-.324-1.142-.265-2.04.01-.144.028-.29.028-.436z" fill="#8E3232"/>
    <path fill="#8E3232" d="M60.364 30.923h148.301v3.017H60.364zM1.118 17.347L0 20.363h8.943l1.863-3.016H1.118z"/>
</svg>
